; NON-PLATED HOLES START AT T1
; THROUGH (PLATED) HOLES START AT T100
M48
INCH
T1C0.165354
T100C0.038000
T101C0.038779
T102C0.047244
%
T1
X001283Y012612
X036283Y012612
X001283Y025612
X001283Y003612
X036283Y025612
X036283Y003612
T100
X016283Y007612
X015283Y007612
X019283Y022612
X017283Y003612
X012283Y003612
X014283Y007612
X004283Y014612
X034283Y017612
X024283Y022612
X027283Y022612
X020283Y007612
X012283Y007612
X031283Y022612
X020283Y024612
X018283Y003612
X028283Y007612
X019283Y024612
X017283Y007612
X025283Y007612
X025283Y003612
X011283Y007612
X014283Y025612
X003283Y024612
X011283Y017612
X029283Y022612
X013283Y003612
X021283Y024612
X012283Y017612
X025283Y017612
X015283Y003612
X013283Y022612
X020283Y017612
X018283Y007612
X027283Y017612
X034283Y012612
X004283Y015612
X030283Y003612
X030283Y022612
X026283Y022612
X034283Y014612
X014283Y003612
X018283Y022612
X022283Y017612
X023283Y017612
X006283Y024612
X026283Y007612
X031283Y003612
X004283Y016612
X004283Y018612
X016283Y025612
X034283Y015612
X017283Y022612
X026283Y017612
X013283Y007612
X029283Y017612
X015283Y025612
X029283Y007612
X023283Y007612
X025283Y022612
X005283Y024612
X004283Y012612
X004283Y024612
X022283Y007612
X028283Y003612
X024283Y007612
X032283Y003612
X034283Y013612
X019283Y007612
X026283Y003612
X019283Y017612
X016283Y017612
X012283Y022612
X015283Y022612
X018283Y017612
X027283Y003612
X017283Y017612
X013283Y017612
X028283Y017612
X014283Y017612
X015283Y017612
X034283Y016612
X004283Y011612
X021283Y007612
X019283Y003612
X004283Y017612
X014283Y022612
X027283Y007612
X021283Y017612
X024283Y017612
X004283Y013612
T101
X023278Y018612
X019284Y018612
X028275Y018612
X027272Y008755
X020277Y008755
X013282Y008755
X028275Y008755
X014286Y008755
X012289Y008755
X027272Y018612
X029279Y008755
X026278Y018612
X016283Y018612
X024281Y008755
X026278Y008755
X017286Y018612
X018280Y008755
X018280Y018612
X022284Y008755
X020277Y018612
X014286Y018612
X011285Y018612
X024281Y018612
X013282Y018612
X017286Y008755
X022284Y018612
X025275Y018612
X021281Y008755
X012289Y018612
X029279Y018612
X015279Y018612
X021281Y018612
X015279Y008755
X011285Y008755
X019284Y008755
X016283Y008755
X023278Y008755
X025275Y008755
T102
X035081Y023332
X035081Y021814
T00
M30
