G04 MADE WITH FRITZING*
G04 WWW.FRITZING.ORG*
G04 DOUBLE SIDED*
G04 HOLES PLATED*
G04 CONTOUR ON CENTER OF CONTOUR VECTOR*
%ASAXBY*%
%FSLAX23Y23*%
%MOIN*%
%OFA0B0*%
%SFA1.0B1.0*%
%ADD10C,0.071828*%
%ADD11C,0.080000*%
%ADD12C,0.078000*%
%ADD13C,0.024000*%
%ADD14R,0.001000X0.001000*%
%LNCOPPER0*%
G90*
G70*
G54D10*
X1129Y876D03*
X1229Y876D03*
X1328Y876D03*
X1429Y876D03*
X1528Y876D03*
X1628Y876D03*
X1729Y876D03*
X1828Y876D03*
X1928Y876D03*
X2028Y876D03*
X2128Y876D03*
X2228Y876D03*
X2328Y876D03*
X2428Y876D03*
X2528Y876D03*
X2628Y876D03*
X2727Y876D03*
X2828Y876D03*
X2928Y876D03*
X2928Y1861D03*
X2828Y1861D03*
X2727Y1861D03*
X2628Y1861D03*
X2528Y1861D03*
X2428Y1861D03*
X2328Y1861D03*
X2228Y1861D03*
X2128Y1861D03*
X2028Y1861D03*
X1928Y1861D03*
X1828Y1861D03*
X1729Y1861D03*
X1628Y1861D03*
X1528Y1861D03*
X1429Y1861D03*
X1328Y1861D03*
X1229Y1861D03*
X1129Y1861D03*
G54D11*
X3508Y2333D03*
X3508Y2181D03*
G54D12*
X2128Y2461D03*
X2028Y2461D03*
X1928Y2461D03*
X1628Y2561D03*
X1528Y2561D03*
X1428Y2561D03*
X1928Y361D03*
X1828Y361D03*
X1728Y361D03*
X3128Y2261D03*
X3028Y2261D03*
X2928Y2261D03*
X1928Y2261D03*
X1828Y2261D03*
X1728Y2261D03*
X628Y2461D03*
X528Y2461D03*
X428Y2461D03*
X328Y2461D03*
X3228Y361D03*
X3128Y361D03*
X3028Y361D03*
X1528Y361D03*
X1428Y361D03*
X1328Y361D03*
X1228Y361D03*
X2928Y761D03*
X2828Y761D03*
X2728Y761D03*
X2628Y761D03*
X2528Y761D03*
X2428Y761D03*
X2328Y761D03*
X2228Y761D03*
X2128Y761D03*
X2028Y761D03*
X1928Y761D03*
X1828Y761D03*
X1728Y761D03*
X1628Y761D03*
X1528Y761D03*
X1428Y761D03*
X1328Y761D03*
X1228Y761D03*
X1128Y761D03*
X2828Y361D03*
X2728Y361D03*
X2628Y361D03*
X2528Y361D03*
X428Y1861D03*
X428Y1761D03*
X428Y1661D03*
X428Y1561D03*
X428Y1461D03*
X428Y1361D03*
X428Y1261D03*
X428Y1161D03*
X2928Y1761D03*
X2828Y1761D03*
X2728Y1761D03*
X2628Y1761D03*
X2528Y1761D03*
X2428Y1761D03*
X2328Y1761D03*
X2228Y1761D03*
X2128Y1761D03*
X2028Y1761D03*
X1928Y1761D03*
X1828Y1761D03*
X1728Y1761D03*
X1628Y1761D03*
X1528Y1761D03*
X1428Y1761D03*
X1328Y1761D03*
X1228Y1761D03*
X1128Y1761D03*
X2728Y2261D03*
X2628Y2261D03*
X2528Y2261D03*
X2428Y2261D03*
X1528Y2261D03*
X1428Y2261D03*
X1328Y2261D03*
X1228Y2261D03*
X3428Y1761D03*
X3428Y1661D03*
X3428Y1561D03*
X3428Y1461D03*
X3428Y1361D03*
X3428Y1261D03*
G54D13*
X428Y1780D02*
X428Y1842D01*
D02*
X428Y1680D02*
X428Y1742D01*
D02*
X428Y1580D02*
X428Y1642D01*
D02*
X428Y1480D02*
X428Y1542D01*
D02*
X428Y1380D02*
X428Y1442D01*
D02*
X428Y1180D02*
X428Y1342D01*
D02*
X528Y2362D02*
X528Y2442D01*
D02*
X629Y2260D02*
X528Y2362D01*
D02*
X1329Y1962D02*
X629Y2260D01*
D02*
X1328Y1881D02*
X1329Y1962D01*
D02*
X1130Y2162D02*
X645Y2452D01*
D02*
X1627Y1962D02*
X1130Y2162D01*
D02*
X1628Y1881D02*
X1627Y1962D01*
D02*
X2009Y2461D02*
X1947Y2461D01*
D02*
X2109Y2461D02*
X2047Y2461D01*
D02*
X2929Y2061D02*
X2327Y1962D01*
D02*
X2327Y1962D02*
X2242Y1875D01*
D02*
X3020Y2244D02*
X2929Y2061D01*
D02*
X1833Y1880D02*
X1924Y2243D01*
D02*
X3028Y2362D02*
X3115Y2275D01*
D02*
X2429Y2460D02*
X3028Y2362D01*
D02*
X2036Y1879D02*
X2229Y2260D01*
D02*
X2229Y2260D02*
X2429Y2460D01*
D02*
X3129Y562D02*
X3227Y461D01*
D02*
X2429Y562D02*
X3129Y562D01*
D02*
X2328Y742D02*
X2327Y660D01*
D02*
X3227Y461D02*
X3228Y380D01*
D02*
X2327Y660D02*
X2429Y562D01*
D02*
X2217Y746D02*
X1940Y376D01*
D02*
X3428Y1680D02*
X3428Y1742D01*
D02*
X3428Y1580D02*
X3428Y1642D01*
D02*
X3428Y1480D02*
X3428Y1542D01*
D02*
X3428Y1380D02*
X3428Y1442D01*
D02*
X3428Y1280D02*
X3428Y1342D01*
D02*
X3328Y163D02*
X2929Y163D01*
D02*
X3430Y362D02*
X3328Y163D01*
D02*
X2929Y163D02*
X2837Y344D01*
D02*
X3430Y860D02*
X3430Y362D01*
D02*
X3428Y1242D02*
X3430Y860D01*
D02*
X1547Y2561D02*
X1609Y2561D01*
D02*
X1447Y2561D02*
X1509Y2561D01*
D02*
X528Y2561D02*
X442Y2475D01*
D02*
X1409Y2561D02*
X528Y2561D01*
D02*
X3488Y2193D02*
X2828Y2561D01*
D02*
X2828Y2561D02*
X1647Y2561D01*
D02*
X1622Y2543D02*
X1534Y2279D01*
D02*
X1728Y163D02*
X2730Y163D01*
D02*
X1542Y348D02*
X1728Y163D01*
D02*
X2730Y163D02*
X2820Y344D01*
D02*
X2020Y744D02*
X1837Y378D01*
G54D14*
X3469Y2373D02*
X3547Y2373D01*
X3469Y2372D02*
X3548Y2372D01*
X3469Y2371D02*
X3548Y2371D01*
X3469Y2370D02*
X3548Y2370D01*
X3469Y2369D02*
X3548Y2369D01*
X3469Y2368D02*
X3548Y2368D01*
X3469Y2367D02*
X3548Y2367D01*
X3469Y2366D02*
X3548Y2366D01*
X3469Y2365D02*
X3548Y2365D01*
X3469Y2364D02*
X3548Y2364D01*
X3469Y2363D02*
X3548Y2363D01*
X3469Y2362D02*
X3548Y2362D01*
X3469Y2361D02*
X3548Y2361D01*
X3469Y2360D02*
X3548Y2360D01*
X3469Y2359D02*
X3548Y2359D01*
X3469Y2358D02*
X3548Y2358D01*
X3469Y2357D02*
X3548Y2357D01*
X3469Y2356D02*
X3501Y2356D01*
X3515Y2356D02*
X3548Y2356D01*
X3469Y2355D02*
X3498Y2355D01*
X3518Y2355D02*
X3548Y2355D01*
X3469Y2354D02*
X3496Y2354D01*
X3520Y2354D02*
X3548Y2354D01*
X3469Y2353D02*
X3494Y2353D01*
X3522Y2353D02*
X3548Y2353D01*
X3469Y2352D02*
X3493Y2352D01*
X3523Y2352D02*
X3548Y2352D01*
X3469Y2351D02*
X3492Y2351D01*
X3524Y2351D02*
X3548Y2351D01*
X3469Y2350D02*
X3491Y2350D01*
X3525Y2350D02*
X3548Y2350D01*
X3469Y2349D02*
X3490Y2349D01*
X3526Y2349D02*
X3548Y2349D01*
X3469Y2348D02*
X3489Y2348D01*
X3527Y2348D02*
X3548Y2348D01*
X3469Y2347D02*
X3488Y2347D01*
X3528Y2347D02*
X3548Y2347D01*
X3469Y2346D02*
X3488Y2346D01*
X3528Y2346D02*
X3548Y2346D01*
X3469Y2345D02*
X3487Y2345D01*
X3529Y2345D02*
X3548Y2345D01*
X3469Y2344D02*
X3487Y2344D01*
X3529Y2344D02*
X3548Y2344D01*
X3469Y2343D02*
X3486Y2343D01*
X3530Y2343D02*
X3548Y2343D01*
X3469Y2342D02*
X3486Y2342D01*
X3530Y2342D02*
X3548Y2342D01*
X3469Y2341D02*
X3485Y2341D01*
X3531Y2341D02*
X3548Y2341D01*
X3469Y2340D02*
X3485Y2340D01*
X3531Y2340D02*
X3548Y2340D01*
X3469Y2339D02*
X3485Y2339D01*
X3531Y2339D02*
X3548Y2339D01*
X3469Y2338D02*
X3484Y2338D01*
X3532Y2338D02*
X3548Y2338D01*
X3469Y2337D02*
X3484Y2337D01*
X3532Y2337D02*
X3548Y2337D01*
X3469Y2336D02*
X3484Y2336D01*
X3532Y2336D02*
X3548Y2336D01*
X3469Y2335D02*
X3484Y2335D01*
X3532Y2335D02*
X3548Y2335D01*
X3469Y2334D02*
X3484Y2334D01*
X3532Y2334D02*
X3548Y2334D01*
X3469Y2333D02*
X3484Y2333D01*
X3532Y2333D02*
X3548Y2333D01*
X3469Y2332D02*
X3484Y2332D01*
X3532Y2332D02*
X3548Y2332D01*
X3469Y2331D02*
X3484Y2331D01*
X3532Y2331D02*
X3548Y2331D01*
X3469Y2330D02*
X3484Y2330D01*
X3532Y2330D02*
X3548Y2330D01*
X3469Y2329D02*
X3484Y2329D01*
X3532Y2329D02*
X3548Y2329D01*
X3469Y2328D02*
X3485Y2328D01*
X3531Y2328D02*
X3548Y2328D01*
X3469Y2327D02*
X3485Y2327D01*
X3531Y2327D02*
X3548Y2327D01*
X3469Y2326D02*
X3485Y2326D01*
X3531Y2326D02*
X3548Y2326D01*
X3469Y2325D02*
X3485Y2325D01*
X3531Y2325D02*
X3548Y2325D01*
X3469Y2324D02*
X3486Y2324D01*
X3530Y2324D02*
X3548Y2324D01*
X3469Y2323D02*
X3486Y2323D01*
X3530Y2323D02*
X3548Y2323D01*
X3469Y2322D02*
X3487Y2322D01*
X3529Y2322D02*
X3548Y2322D01*
X3469Y2321D02*
X3487Y2321D01*
X3529Y2321D02*
X3548Y2321D01*
X3469Y2320D02*
X3488Y2320D01*
X3528Y2320D02*
X3548Y2320D01*
X3469Y2319D02*
X3489Y2319D01*
X3527Y2319D02*
X3548Y2319D01*
X3469Y2318D02*
X3490Y2318D01*
X3526Y2318D02*
X3548Y2318D01*
X3469Y2317D02*
X3491Y2317D01*
X3525Y2317D02*
X3548Y2317D01*
X3469Y2316D02*
X3492Y2316D01*
X3524Y2316D02*
X3548Y2316D01*
X3469Y2315D02*
X3493Y2315D01*
X3523Y2315D02*
X3548Y2315D01*
X3469Y2314D02*
X3494Y2314D01*
X3522Y2314D02*
X3548Y2314D01*
X3469Y2313D02*
X3496Y2313D01*
X3520Y2313D02*
X3548Y2313D01*
X3469Y2312D02*
X3498Y2312D01*
X3518Y2312D02*
X3548Y2312D01*
X3469Y2311D02*
X3500Y2311D01*
X3516Y2311D02*
X3548Y2311D01*
X3469Y2310D02*
X3504Y2310D01*
X3512Y2310D02*
X3548Y2310D01*
X3469Y2309D02*
X3548Y2309D01*
X3469Y2308D02*
X3548Y2308D01*
X3469Y2307D02*
X3548Y2307D01*
X3469Y2306D02*
X3548Y2306D01*
X3469Y2305D02*
X3548Y2305D01*
X3469Y2304D02*
X3548Y2304D01*
X3469Y2303D02*
X3548Y2303D01*
X3469Y2302D02*
X3548Y2302D01*
X3469Y2301D02*
X3548Y2301D01*
X3469Y2300D02*
X3548Y2300D01*
X3469Y2299D02*
X3548Y2299D01*
X3469Y2298D02*
X3548Y2298D01*
X3469Y2297D02*
X3548Y2297D01*
X3469Y2296D02*
X3548Y2296D01*
X3469Y2295D02*
X3548Y2295D01*
X3469Y2294D02*
X3548Y2294D01*
D02*
G04 End of Copper0*
M02*