G04 MADE WITH FRITZING*
G04 WWW.FRITZING.ORG*
G04 DOUBLE SIDED*
G04 HOLES PLATED*
G04 CONTOUR ON CENTER OF CONTOUR VECTOR*
%ASAXBY*%
%FSLAX23Y23*%
%MOIN*%
%OFA0B0*%
%SFA1.0B1.0*%
%ADD10C,0.081824*%
%ADD11C,0.090000*%
%ADD12C,0.088000*%
%ADD13C,0.175354*%
%ADD14R,0.001000X0.001000*%
%LNMASK0*%
G90*
G70*
G54D10*
X1129Y876D03*
X1229Y876D03*
X1328Y876D03*
X1429Y876D03*
X1528Y876D03*
X1628Y876D03*
X1729Y876D03*
X1828Y876D03*
X1928Y876D03*
X2028Y876D03*
X2128Y876D03*
X2228Y876D03*
X2328Y876D03*
X2428Y876D03*
X2528Y876D03*
X2628Y876D03*
X2727Y876D03*
X2828Y876D03*
X2928Y876D03*
X2928Y1861D03*
X2828Y1861D03*
X2727Y1861D03*
X2628Y1861D03*
X2528Y1861D03*
X2428Y1861D03*
X2328Y1861D03*
X2228Y1861D03*
X2128Y1861D03*
X2028Y1861D03*
X1928Y1861D03*
X1828Y1861D03*
X1729Y1861D03*
X1628Y1861D03*
X1528Y1861D03*
X1429Y1861D03*
X1328Y1861D03*
X1229Y1861D03*
X1129Y1861D03*
G54D11*
X3508Y2333D03*
X3508Y2181D03*
G54D12*
X2128Y2461D03*
X2028Y2461D03*
X1928Y2461D03*
X1628Y2561D03*
X1528Y2561D03*
X1428Y2561D03*
X3128Y2261D03*
X3028Y2261D03*
X2928Y2261D03*
X1928Y361D03*
X1828Y361D03*
X1728Y361D03*
X1928Y2261D03*
X1828Y2261D03*
X1728Y2261D03*
X628Y2461D03*
X528Y2461D03*
X428Y2461D03*
X328Y2461D03*
X3228Y361D03*
X3128Y361D03*
X3028Y361D03*
X428Y1861D03*
X428Y1761D03*
X428Y1661D03*
X428Y1561D03*
X428Y1461D03*
X428Y1361D03*
X428Y1261D03*
X428Y1161D03*
X2928Y1761D03*
X2828Y1761D03*
X2728Y1761D03*
X2628Y1761D03*
X2528Y1761D03*
X2428Y1761D03*
X2328Y1761D03*
X2228Y1761D03*
X2128Y1761D03*
X2028Y1761D03*
X1928Y1761D03*
X1828Y1761D03*
X1728Y1761D03*
X1628Y1761D03*
X1528Y1761D03*
X1428Y1761D03*
X1328Y1761D03*
X1228Y1761D03*
X1128Y1761D03*
X1528Y2261D03*
X1428Y2261D03*
X1328Y2261D03*
X1228Y2261D03*
X2928Y761D03*
X2828Y761D03*
X2728Y761D03*
X2628Y761D03*
X2528Y761D03*
X2428Y761D03*
X2328Y761D03*
X2228Y761D03*
X2128Y761D03*
X2028Y761D03*
X1928Y761D03*
X1828Y761D03*
X1728Y761D03*
X1628Y761D03*
X1528Y761D03*
X1428Y761D03*
X1328Y761D03*
X1228Y761D03*
X1128Y761D03*
X1528Y361D03*
X1428Y361D03*
X1328Y361D03*
X1228Y361D03*
X2828Y361D03*
X2728Y361D03*
X2628Y361D03*
X2528Y361D03*
X2728Y2261D03*
X2628Y2261D03*
X2528Y2261D03*
X2428Y2261D03*
X3428Y1761D03*
X3428Y1661D03*
X3428Y1561D03*
X3428Y1461D03*
X3428Y1361D03*
X3428Y1261D03*
G54D13*
X3628Y361D03*
X3628Y2561D03*
X3628Y1261D03*
X128Y2561D03*
X128Y1261D03*
X128Y361D03*
G54D14*
X3464Y2378D02*
X3552Y2378D01*
X3464Y2377D02*
X3553Y2377D01*
X3464Y2376D02*
X3553Y2376D01*
X3464Y2375D02*
X3553Y2375D01*
X3464Y2374D02*
X3553Y2374D01*
X3464Y2373D02*
X3553Y2373D01*
X3464Y2372D02*
X3553Y2372D01*
X3464Y2371D02*
X3553Y2371D01*
X3464Y2370D02*
X3553Y2370D01*
X3464Y2369D02*
X3553Y2369D01*
X3464Y2368D02*
X3553Y2368D01*
X3464Y2367D02*
X3553Y2367D01*
X3464Y2366D02*
X3553Y2366D01*
X3464Y2365D02*
X3553Y2365D01*
X3464Y2364D02*
X3553Y2364D01*
X3464Y2363D02*
X3553Y2363D01*
X3464Y2362D02*
X3553Y2362D01*
X3464Y2361D02*
X3553Y2361D01*
X3464Y2360D02*
X3553Y2360D01*
X3464Y2359D02*
X3553Y2359D01*
X3464Y2358D02*
X3553Y2358D01*
X3464Y2357D02*
X3553Y2357D01*
X3464Y2356D02*
X3553Y2356D01*
X3464Y2355D02*
X3553Y2355D01*
X3464Y2354D02*
X3553Y2354D01*
X3464Y2353D02*
X3553Y2353D01*
X3464Y2352D02*
X3553Y2352D01*
X3464Y2351D02*
X3501Y2351D01*
X3515Y2351D02*
X3553Y2351D01*
X3464Y2350D02*
X3499Y2350D01*
X3517Y2350D02*
X3553Y2350D01*
X3464Y2349D02*
X3497Y2349D01*
X3519Y2349D02*
X3553Y2349D01*
X3464Y2348D02*
X3496Y2348D01*
X3520Y2348D02*
X3553Y2348D01*
X3464Y2347D02*
X3495Y2347D01*
X3521Y2347D02*
X3553Y2347D01*
X3464Y2346D02*
X3494Y2346D01*
X3522Y2346D02*
X3553Y2346D01*
X3464Y2345D02*
X3493Y2345D01*
X3523Y2345D02*
X3553Y2345D01*
X3464Y2344D02*
X3492Y2344D01*
X3524Y2344D02*
X3553Y2344D01*
X3464Y2343D02*
X3492Y2343D01*
X3524Y2343D02*
X3553Y2343D01*
X3464Y2342D02*
X3491Y2342D01*
X3525Y2342D02*
X3553Y2342D01*
X3464Y2341D02*
X3490Y2341D01*
X3526Y2341D02*
X3553Y2341D01*
X3464Y2340D02*
X3490Y2340D01*
X3526Y2340D02*
X3553Y2340D01*
X3464Y2339D02*
X3490Y2339D01*
X3526Y2339D02*
X3553Y2339D01*
X3464Y2338D02*
X3489Y2338D01*
X3527Y2338D02*
X3553Y2338D01*
X3464Y2337D02*
X3489Y2337D01*
X3527Y2337D02*
X3553Y2337D01*
X3464Y2336D02*
X3489Y2336D01*
X3527Y2336D02*
X3553Y2336D01*
X3464Y2335D02*
X3489Y2335D01*
X3527Y2335D02*
X3553Y2335D01*
X3464Y2334D02*
X3489Y2334D01*
X3527Y2334D02*
X3553Y2334D01*
X3464Y2333D02*
X3489Y2333D01*
X3527Y2333D02*
X3553Y2333D01*
X3464Y2332D02*
X3489Y2332D01*
X3527Y2332D02*
X3553Y2332D01*
X3464Y2331D02*
X3489Y2331D01*
X3527Y2331D02*
X3553Y2331D01*
X3464Y2330D02*
X3489Y2330D01*
X3527Y2330D02*
X3553Y2330D01*
X3464Y2329D02*
X3489Y2329D01*
X3527Y2329D02*
X3553Y2329D01*
X3464Y2328D02*
X3490Y2328D01*
X3526Y2328D02*
X3553Y2328D01*
X3464Y2327D02*
X3490Y2327D01*
X3526Y2327D02*
X3553Y2327D01*
X3464Y2326D02*
X3490Y2326D01*
X3526Y2326D02*
X3553Y2326D01*
X3464Y2325D02*
X3491Y2325D01*
X3525Y2325D02*
X3553Y2325D01*
X3464Y2324D02*
X3491Y2324D01*
X3525Y2324D02*
X3553Y2324D01*
X3464Y2323D02*
X3492Y2323D01*
X3524Y2323D02*
X3553Y2323D01*
X3464Y2322D02*
X3493Y2322D01*
X3523Y2322D02*
X3553Y2322D01*
X3464Y2321D02*
X3494Y2321D01*
X3522Y2321D02*
X3553Y2321D01*
X3464Y2320D02*
X3495Y2320D01*
X3521Y2320D02*
X3553Y2320D01*
X3464Y2319D02*
X3496Y2319D01*
X3520Y2319D02*
X3553Y2319D01*
X3464Y2318D02*
X3497Y2318D01*
X3519Y2318D02*
X3553Y2318D01*
X3464Y2317D02*
X3499Y2317D01*
X3517Y2317D02*
X3553Y2317D01*
X3464Y2316D02*
X3501Y2316D01*
X3515Y2316D02*
X3553Y2316D01*
X3464Y2315D02*
X3505Y2315D01*
X3511Y2315D02*
X3553Y2315D01*
X3464Y2314D02*
X3553Y2314D01*
X3464Y2313D02*
X3553Y2313D01*
X3464Y2312D02*
X3553Y2312D01*
X3464Y2311D02*
X3553Y2311D01*
X3464Y2310D02*
X3553Y2310D01*
X3464Y2309D02*
X3553Y2309D01*
X3464Y2308D02*
X3553Y2308D01*
X3464Y2307D02*
X3553Y2307D01*
X3464Y2306D02*
X3553Y2306D01*
X3464Y2305D02*
X3553Y2305D01*
X3464Y2304D02*
X3553Y2304D01*
X3464Y2303D02*
X3553Y2303D01*
X3464Y2302D02*
X3553Y2302D01*
X3464Y2301D02*
X3553Y2301D01*
X3464Y2300D02*
X3553Y2300D01*
X3464Y2299D02*
X3553Y2299D01*
X3464Y2298D02*
X3553Y2298D01*
X3464Y2297D02*
X3553Y2297D01*
X3464Y2296D02*
X3553Y2296D01*
X3464Y2295D02*
X3553Y2295D01*
X3464Y2294D02*
X3553Y2294D01*
X3464Y2293D02*
X3553Y2293D01*
X3464Y2292D02*
X3553Y2292D01*
X3464Y2291D02*
X3553Y2291D01*
X3464Y2290D02*
X3553Y2290D01*
X3464Y2289D02*
X3553Y2289D01*
D02*
G04 End of Mask0*
M02*